:SAMPLES-PER-SECOND 30
:FULLY-SPECIFIED
:DEGREES
172
root  -31.5563 40.63 6.30391 -11.8751 -74.9347 19.6122
RightUpLeg  -1.17764 -19.1902 -18.6958
RightLeg  9.42146 -17.0669 0.785025
RightFoot  -5.03762 -0.68431 11.7635
RightToes  0.000482159 0.542163 -0.142577
Spine  19.2593 4.11701 13.705
Spine1  3.07641 11.2531 -21.5748
HEad  -5.86919 -16.5864 -16.8367
LeftShoulder1  5.76099 -10.0455 -36.4136
LeftArm  -24.7023 11.4003 -28.5049
LeftForeArm  60.9807 -61.1436 -14.6438
LeftHand  -0.25398 0.0180481 5.50724
RightShoulder  1.88727 3.90778 19.0217
RightArm  -80.3319 27.5833 5.88932
RightForeArm  96.1933 76.7036 121.442
RightHand  -7.52935 16.2421 -39.3175
LeftUpLeg  -15.3847 -1.78903 -6.12053
LeftLeg  2.27977 -3.22261 -5.40499
LeftFoot  6.92504 -0.971267 5.7731
LeftToes  1.06244e-005 4.65856e-005 -8.18505e-006
173
root  -31.4226 40.643 6.21707 -13.6164 -76.6589 20.7841
RightUpLeg  -1.87289 -19.002 -18.1338
RightLeg  10.0169 -15.1345 0.313467
RightFoot  -4.93887 -0.678356 11.4885
RightToes  0.000482159 0.542163 -0.142577
Spine  20.3655 4.73734 14.6964
Spine1  3.80092 12.9314 -23.9899
HEad  -7.69431 -19.5718 -14.4878
LeftShoulder1  6.1516 -10.6095 -37.4534
LeftArm  -23.0034 6.35775 -28.4152
LeftForeArm  58.6157 -57.211 -12.3681
LeftHand  -0.25398 0.0180481 5.50724
RightShoulder  2.43603 6.09864 18.9183
RightArm  -68.3216 32.3478 3.83206
RightForeArm  25.7804 73.3494 46.6696
RightHand  -5.17966 11.0954 -35.3638
LeftUpLeg  -15.152 -1.31847 -5.58239
LeftLeg  2.48527 -1.77295 -5.3187
LeftFoot  6.74495 -0.937382 5.62651
LeftToes  1.06244e-005 4.65856e-005 -8.18505e-006
174
root  -31.2554 40.6475 6.15245 -19.77 -79.6184 26.0409
RightUpLeg  -2.66858 -18.3173 -17.7445
RightLeg  10.452 -12.596 -0.0429197
RightFoot  -4.95849 -0.644283 10.9152
RightToes  0.000482159 0.542163 -0.142577
Spine  21.939 5.24194 15.6803
Spine1  3.92019 14.6604 -27.2524
HEad  -10.1111 -22.3928 -11.3115
LeftShoulder1  6.46023 -11.3277 -37.4308
LeftArm  -21.1074 2.26847 -29.1355
LeftForeArm  55.0856 -53.0691 -10.5607
LeftHand  -0.25398 0.0180481 5.50724
RightShoulder  2.74755 8.38071 16.501
RightArm  -46.3217 41.2541 2.15388
RightForeArm  -4.88164 44.3701 10.6514
RightHand  -2.30521 4.67364 -26.7891
LeftUpLeg  -14.6155 -0.663465 -5.00408
LeftLeg  2.83485 0.81565 -5.25567
LeftFoot  6.30364 -0.890979 5.48837
LeftToes  1.06244e-005 4.65856e-005 -8.18505e-006
175
root  -31.1417 40.6568 6.08506 -30.9141 -82.6608 36.5469
RightUpLeg  -3.48632 -17.285 -17.3272
RightLeg  10.4296 -10.4306 -0.103762
RightFoot  -4.92532 -0.617155 10.385
RightToes  0.000482159 0.542163 -0.142577
Spine  23.3954 5.83775 16.988
Spine1  3.85447 16.6743 -31.2224
HEad  -13.573 -25.675 -6.73459
LeftShoulder1  6.7065 -12.1301 -36.7899
LeftArm  -18.3477 -1.48738 -30.3102
LeftForeArm  51.5453 -48.6609 -8.98867
LeftHand  -0.25398 0.0180481 5.50724
RightShoulder  3.14545 11.8182 13.629
RightArm  -0.765006 50.7953 4.09151
RightForeArm  -14.3664 19.0274 5.26084
RightHand  -1.57025 4.23106 -19.2696
LeftUpLeg  -14.1325 0.138444 -4.3325
LeftLeg  3.03227 3.47137 -5.28195
LeftFoot  5.82239 -0.833449 5.28387
LeftToes  1.06244e-005 4.65856e-005 -8.18505e-006
176
root  -31.1364 40.6904 6.01441 -39.9348 -84.3937 45.4616
RightUpLeg  -3.73079 -16.3547 -16.8821
RightLeg  9.65389 -9.64516 0.308798
RightFoot  -4.58636 -0.630402 10.1256
RightToes  0.000482159 0.542163 -0.142577
Spine  24.1919 6.6208 18.1884
Spine1  4.06173 18.5867 -34.0371
HEad  -18.8535 -28.9932 -0.952539
LeftShoulder1  6.96377 -12.7281 -36.7916
LeftArm  -14.7174 -5.07454 -31.39
LeftForeArm  50.2011 -44.4546 -7.61113
LeftHand  -0.25398 0.0180481 5.50724
RightShoulder  3.87234 15.6935 13.1204
RightArm  51.9401 52.1668 12.4167
RightForeArm  -23.668 22.3176 7.74328
RightHand  -1.22216 3.1645 -16.7953
LeftUpLeg  -13.92 0.760682 -3.66494
LeftLeg  2.94282 4.87417 -5.30545
LeftFoot  5.55877 -0.783349 5.04219
LeftToes  1.06244e-005 4.65856e-005 -8.18505e-006
